<?xml version="1.0" encoding="UTF-8" standalone="no"?>
<!-- Created with Inkscape (http://www.inkscape.org/) -->

<svg
   xmlns:dc="http://purl.org/dc/elements/1.1/"
   xmlns:cc="http://creativecommons.org/ns#"
   xmlns:rdf="http://www.w3.org/1999/02/22-rdf-syntax-ns#"
   xmlns:svg="http://www.w3.org/2000/svg"
   xmlns="http://www.w3.org/2000/svg"
   xmlns:sodipodi="http://sodipodi.sourceforge.net/DTD/sodipodi-0.dtd"
   xmlns:inkscape="http://www.inkscape.org/namespaces/inkscape"
   version="1.1"
   id="svg2"
   xml:space="preserve"
   width="672"
   height="480"
   viewBox="0 0 672 480"
   sodipodi:docname="Bear_Vector_Vector_Free.svg"
   inkscape:version="0.92.1 r15371"><metadata
     id="metadata8"><rdf:RDF><cc:Work
         rdf:about=""><dc:format>image/svg+xml</dc:format><dc:type
           rdf:resource="http://purl.org/dc/dcmitype/StillImage" /><dc:title></dc:title></cc:Work></rdf:RDF></metadata><defs
     id="defs6"><clipPath
       clipPathUnits="userSpaceOnUse"
       id="clipPath30"><path
         d="M 0,360 H 504 V 0 H 0 Z"
         id="path28"
         inkscape:connector-curvature="0" /></clipPath></defs><sodipodi:namedview
     pagecolor="#ffffff"
     bordercolor="#666666"
     borderopacity="1"
     objecttolerance="10"
     gridtolerance="10"
     guidetolerance="10"
     inkscape:pageopacity="0"
     inkscape:pageshadow="2"
     inkscape:window-width="1920"
     inkscape:window-height="1001"
     id="namedview4"
     showgrid="false"
     inkscape:zoom="1"
     inkscape:cx="336"
     inkscape:cy="240"
     inkscape:window-x="-9"
     inkscape:window-y="-9"
     inkscape:window-maximized="1"
     inkscape:current-layer="g10" /><g
     id="g10"
     inkscape:groupmode="layer"
     inkscape:label="Bear_Vector_Vector_Free"
     transform="matrix(1.3333333,0,0,-1.3333333,0,480)"><g
       id="g5125"><g
         transform="translate(426.7373,282.6733)"
         id="g32"><path
           inkscape:connector-curvature="0"
           id="path34"
           style="fill:#7c4927;fill-opacity:1;fill-rule:nonzero;stroke:none"
           d="m 0,0 c 0,0 -3.579,-3.579 -17.896,-2.326 -14.317,1.253 -18.97,-1.253 -25.234,-6.264 -6.264,-5.011 -13.242,-18.612 -8.59,-30.781 4.654,-12.17 5.368,-11.812 3.759,-27.56 h 16.285 c 0,0 -1.074,3.042 -3.4,2.863 0,0 8.232,9.306 7.695,20.939 0,0 18.611,-4.832 27.381,2.147 0,0 -0.179,-16.643 11.453,-25.949 h 11.633 c 0,0 -1.969,2.327 -4.116,2.147 0,0 -8.053,13.78 -1.074,29.708 6.979,15.928 11.991,9.306 17.181,26.307 0,0 2.684,4.653 4.294,5.727 1.611,1.073 5.549,2.684 2.506,6.264 L 39.909,1.909 c 0,0 -2.625,-0.239 -2.506,2.267 0.119,2.505 3.34,7.277 4.535,8.948 1.192,1.67 -0.598,4.772 -1.91,4.295 -1.312,-0.477 -4.415,-5.011 -8.948,-4.892 -4.533,0.119 -9.306,-0.835 -11.931,-3.698 0,0 -2.386,2.743 -4.415,2.147 C 12.707,10.38 11.752,7.397 13.9,5.847 c 0,0 -3.699,-0.12 -5.607,-3.461 C 8.293,2.386 4.116,3.58 0,0" /></g><g
         transform="translate(409.498,218.2476)"
         id="g36"><path
           inkscape:connector-curvature="0"
           id="path38"
           style="fill:#6d3e1f;fill-opacity:1;fill-rule:nonzero;stroke:none"
           d="m 0,0 c 0,0 2.147,6.562 0.715,15.033 0,0 10.38,2.863 16.524,8.411 C 8.47,16.465 -10.142,21.297 -10.142,21.297 -9.859,15.175 -12.005,9.7 -14.103,5.884 -10.45,3.588 -9.664,-2.505 -9.664,-2.505 H 4.533 C 4.533,-2.505 2.743,0 0,0" /></g><g
         transform="translate(466.5273,218.7246)"
         id="g40"><path
           inkscape:connector-curvature="0"
           id="path42"
           style="fill:#6d3e1f;fill-opacity:1;fill-rule:nonzero;stroke:none"
           d="m 0,0 c -18.129,20.276 -10.296,43.9 -10.291,43.916 -3.434,-3.881 -7.11,-4.791 -11.603,-15.043 -0.736,-1.679 -1.302,-3.333 -1.731,-4.951 C -22.128,4.937 -8.352,-2.982 -8.352,-2.982 H 3.698 C 3.579,-0.477 0,0 0,0" /></g><g
         transform="translate(452.8066,290.7861)"
         id="g44"><path
           inkscape:connector-curvature="0"
           id="path46"
           style="fill:#5b3019;fill-opacity:1;fill-rule:nonzero;stroke:none"
           d="M 0,0 C 0,0 1.55,2.268 3.757,1.074 3.757,1.074 2.863,-0.835 0,0" /></g><g
         transform="translate(468.8437,285.6099)"
         id="g48"><path
           inkscape:connector-curvature="0"
           id="path50"
           style="fill:#5b3019;fill-opacity:1;fill-rule:nonzero;stroke:none"
           d="m 0,0 c -0.072,0.094 -0.147,0.188 -0.229,0.285 l -1.968,-1.312 c 0,0 -2.625,-0.239 -2.506,2.266 0.119,2.505 3.34,7.278 4.534,8.948 0.24,0.337 0.357,0.733 0.384,1.145 C -0.843,11.336 -3.007,10.927 -5.3,8.04 -8.521,3.983 -9.476,-0.789 -7.208,-2.22 -5.39,-3.369 -1.747,-2.443 0,0" /></g><g
         transform="translate(399.3564,239.5444)"
         id="g52"><path
           inkscape:connector-curvature="0"
           id="path54"
           style="fill:#5b3019;fill-opacity:1;fill-rule:nonzero;stroke:none"
           d="M 0,0 C 0.054,-1.184 0.017,-2.342 -0.092,-3.47 5.588,-4.384 17.611,-5.197 26.957,1.824 18.025,-4.68 0,0 0,0" /></g><g
         transform="translate(455.5371,259.8857)"
         id="g56"><path
           inkscape:connector-curvature="0"
           id="path58"
           style="fill:#5b3019;fill-opacity:1;fill-rule:nonzero;stroke:none"
           d="m 0,0 c 0.368,1.754 0.698,2.751 0.699,2.755 -3.433,-3.881 -7.11,-4.792 -11.602,-15.043 -0.737,-1.679 -1.303,-3.334 -1.732,-4.951 0.114,-1.443 0.306,-2.813 0.549,-4.128 C -9.685,-10.374 -3.456,-3.243 0,0" /></g></g><g
       id="g4990"><g
         transform="translate(382.2773,60.4434)"
         id="g60"><path
           inkscape:connector-curvature="0"
           id="path62"
           style="fill:#5b3019;fill-opacity:1;fill-rule:nonzero;stroke:none"
           d="m 0,0 c 0,0 0.14,1.661 -0.751,1.661 -0.891,0 0.371,-1.849 0.379,-1.849 0.01,0 0.366,-0.125 0.372,0.188" /></g><g
         transform="translate(381.4805,60.0732)"
         id="g64"><path
           inkscape:connector-curvature="0"
           id="path66"
           style="fill:#5b3019;fill-opacity:1;fill-rule:nonzero;stroke:none"
           d="M 0,0 C 0,0 -0.365,1.483 -0.959,1.62 -1.552,1.757 -1.139,0.263 -0.868,0 -0.596,-0.264 -0.41,-0.754 0,0" /></g><g
         transform="translate(379.7461,60.3926)"
         id="g68"><path
           inkscape:connector-curvature="0"
           id="path70"
           style="fill:#5b3019;fill-opacity:1;fill-rule:nonzero;stroke:none"
           d="M 0,0 C 0,0 -0.457,-0.389 0,-0.799 0.456,-1.21 1.323,-2.403 1.779,-2.274 2.236,-2.146 0.2,0.366 0,0" /></g><g
         transform="translate(383.5811,51.1025)"
         id="g72"><path
           inkscape:connector-curvature="0"
           id="path74"
           style="fill:#5b3019;fill-opacity:1;fill-rule:nonzero;stroke:none"
           d="M 0,0 C 0,0 -0.708,2.054 -1.393,2.511 -2.077,2.967 -2.101,1.871 -1.53,1.255 -0.959,0.639 -0.389,-0.297 -0.389,-0.297 Z" /></g><g
         transform="translate(380.8486,52.4033)"
         id="g76"><path
           inkscape:connector-curvature="0"
           id="path78"
           style="fill:#5b3019;fill-opacity:1;fill-rule:nonzero;stroke:none"
           d="m 0,0 c 0,0 1.728,-1.483 1.934,-1.78 0.205,-0.297 -0.275,-0.616 -0.275,-0.616 0,0 -1.848,1.3 -2.1,1.825 C -0.691,-0.046 -0.218,0.188 0,0" /></g><g
         transform="translate(382.2852,49.6182)"
         id="g80"><path
           inkscape:connector-curvature="0"
           id="path82"
           style="fill:#5b3019;fill-opacity:1;fill-rule:nonzero;stroke:none"
           d="M 0,0 C 0,0 -1.541,1.644 -1.949,1.53 -2.356,1.416 -2.253,0.73 0,-0.845 c 0,0 0.364,0.473 0,0.845" /></g><g
         transform="translate(400.2051,133.6719)"
         id="g84"><path
           inkscape:connector-curvature="0"
           id="path86"
           style="fill:#7c4927;fill-opacity:1;fill-rule:nonzero;stroke:none"
           d="m 0,0 c 0,0 6.817,3.53 18.383,1.339 0,0 3.287,4.261 5.721,4.626 2.436,0.365 5.235,-5.844 -4.016,-5.357 0,0 2.19,-2.556 3.043,-4.991 0.852,-2.434 2.069,-5.356 4.504,-6.452 2.434,-1.096 2.8,-1.582 3.652,-2.8 0.853,-1.218 2.069,-3.166 3.775,-4.627 1.704,-1.461 7.547,-9.739 13.877,-23.495 6.331,-13.756 12.296,-33.722 3.531,-43.461 0,0 1.704,-1.339 3.773,-1.825 2.07,-0.487 -0.121,-3.773 -3.043,-3.165 -2.921,0.608 -3.043,1.433 -5.843,-0.075 -2.799,-1.508 -10.104,-4.552 -24.469,-4.795 -14.366,-0.244 -20.088,-0.365 -26.053,0 -5.965,0.365 -8.522,2.069 -12.782,7.548 0,0 -2.557,2.313 -2.13,3.652 0.426,1.339 1.156,2.313 3.835,1.582 0,0 -4.505,6.574 -5.053,7.853 -0.548,1.277 1.948,1.704 4.443,0.547 2.497,-1.156 2.13,-1.583 4.809,-1.46 2.678,0.121 6.27,-0.304 6.33,3.53 0.062,3.835 -0.304,26.174 -0.547,28.182 -0.244,2.009 -0.244,5.296 -1.401,7.123 -1.156,1.826 -2.617,4.515 -2.617,8.283 0,3.768 -1.095,11.802 3.347,22.637 0,0 1.888,4.018 2.315,5.114 C -2.19,0.608 -2.678,7.73 0.792,7.853 4.262,7.974 4.748,3.834 0,0" /></g><g
         transform="translate(403.6143,124.1455)"
         id="g88"><path
           inkscape:connector-curvature="0"
           id="path90"
           style="fill:#ffffff;fill-opacity:1;fill-rule:nonzero;stroke:none"
           d="m 0,0 c 0,-0.723 -0.586,-1.309 -1.309,-1.309 -0.722,0 -1.308,0.586 -1.308,1.309 0,0.723 0.586,1.309 1.308,1.309 C -0.586,1.309 0,0.723 0,0" /></g><g
         transform="translate(403.4912,123.5986)"
         id="g92"><path
           inkscape:connector-curvature="0"
           id="path94"
           style="fill:#5b3019;fill-opacity:1;fill-rule:nonzero;stroke:none"
           d="m 0,0 c -0.103,0.128 -0.258,0.212 -0.435,0.212 -0.307,0 -0.557,-0.25 -0.557,-0.558 0,-0.141 0.055,-0.269 0.141,-0.368 C -0.472,-0.612 -0.162,-0.35 0,0" /></g><g
         transform="translate(422.0059,125.1055)"
         id="g96"><path
           inkscape:connector-curvature="0"
           id="path98"
           style="fill:#ffffff;fill-opacity:1;fill-rule:nonzero;stroke:none"
           d="m 0,0 c 0,-0.582 -0.472,-1.054 -1.052,-1.054 -0.582,0 -1.053,0.472 -1.053,1.054 0,0.581 0.471,1.053 1.053,1.053 C -0.472,1.053 0,0.581 0,0" /></g><g
         transform="translate(421.9072,124.665)"
         id="g100"><path
           inkscape:connector-curvature="0"
           id="path102"
           style="fill:#5b3019;fill-opacity:1;fill-rule:nonzero;stroke:none"
           d="m 0,0 c -0.082,0.104 -0.208,0.171 -0.35,0.171 -0.248,0 -0.448,-0.201 -0.448,-0.448 0,-0.115 0.044,-0.218 0.114,-0.296 C -0.38,-0.492 -0.13,-0.281 0,0" /></g><g
         transform="translate(419.0479,122.8848)"
         id="g104"><path
           inkscape:connector-curvature="0"
           id="path106"
           style="fill:#6d3e1f;fill-opacity:1;fill-rule:nonzero;stroke:none"
           d="m 0,0 c 0,0 1.366,-3.092 1.549,-5.709 0.182,-2.617 -0.548,-6.33 -4.321,-6.451 -3.775,-0.122 -10.166,4.869 -9.741,10.347 C -12.086,3.665 -2.399,3.823 0,0" /></g><g
         transform="translate(419.3105,113.6338)"
         id="g108"><path
           inkscape:connector-curvature="0"
           id="path110"
           style="fill:#5b3019;fill-opacity:1;fill-rule:nonzero;stroke:none"
           d="m 0,0 c 0.075,-0.698 -0.785,-1.363 -1.923,-1.485 -1.138,-0.124 -2.121,0.341 -2.196,1.038 -0.075,0.698 0.785,1.363 1.923,1.485 C -1.06,1.162 -0.075,0.696 0,0" /></g><g
         transform="translate(416.5342,113.5762)"
         id="g112"><path
           inkscape:connector-curvature="0"
           id="path114"
           style="fill:#ffffff;fill-opacity:1;fill-rule:nonzero;stroke:none"
           d="m 0,0 c 0,-0.133 -0.107,-0.239 -0.24,-0.239 -0.133,0 -0.24,0.106 -0.24,0.239 0,0.133 0.107,0.24 0.24,0.24 C -0.107,0.24 0,0.133 0,0" /></g><g
         transform="translate(436.9707,74.8408)"
         id="g116"><path
           inkscape:connector-curvature="0"
           id="path118"
           style="fill:#6d3e1f;fill-opacity:1;fill-rule:nonzero;stroke:none"
           d="m 0,0 c 0,0 -7.578,3.562 -13.422,-1.095 -5.843,-4.657 -10.135,-13.879 -14.335,-15.248 -4.199,-1.369 -18.382,-7.578 -23.251,-7.122 0,0 0.517,-1.826 10.56,1.736 10.044,3.56 13.605,4.929 13.605,4.929 0,0 1.735,0.377 5.569,5.485 C -17.439,-6.208 -12.052,3.927 0,0" /></g><g
         transform="translate(397.8926,89.9453)"
         id="g120"><path
           inkscape:connector-curvature="0"
           id="path122"
           style="fill:#6d3e1f;fill-opacity:1;fill-rule:nonzero;stroke:none"
           d="m 0,0 c 0,0 2.191,-7.708 2.191,-14.647 0,-6.94 -1.953,-17.161 -8.889,-23.159 0,0 6.972,4.167 8.889,16.219 C 4.108,-9.534 1.917,-1.317 1.735,-1.043 1.552,-0.77 -0.318,1.214 0,0" /></g><g
         transform="translate(427.293,79.4521)"
         id="g124"><path
           inkscape:connector-curvature="0"
           id="path126"
           style="fill:#6d3e1f;fill-opacity:1;fill-rule:nonzero;stroke:none"
           d="m 0,0 c 0,0 -6.217,-4.656 -8.245,-7.897 -2.026,-3.243 -8.417,-12.47 -11.66,-13.708 0,0 7.761,8.548 10.683,13.708 C -6.301,-2.739 -0.32,1.78 0,0" /></g><g
         transform="translate(391.1797,52.1357)"
         id="g128"><path
           inkscape:connector-curvature="0"
           id="path130"
           style="fill:#6d3e1f;fill-opacity:1;fill-rule:nonzero;stroke:none"
           d="M 0,0 C 0.018,0.013 0.034,0.024 0.052,0.037 1.931,1.671 3.442,3.616 4.647,5.721 4.751,5.903 4.854,6.088 4.959,6.281 4.98,6.322 5.004,6.365 5.026,6.407 4.938,6.314 -1.946,-0.923 -9.129,5.135 -7.619,2.746 -5.217,-0.76 -5.217,-0.76 -3.978,-0.876 -2.13,-0.559 0,0" /></g><g
         transform="translate(387.5176,50.9092)"
         id="g132"><path
           inkscape:connector-curvature="0"
           id="path134"
           style="fill:#6d3e1f;fill-opacity:1;fill-rule:nonzero;stroke:none"
           d="M 0,0 C 0.351,-0.025 0.754,-0.009 1.201,0.082 0.723,0.022 0.327,-0.001 0,0" /></g></g><g
       id="g5053"><g
         transform="translate(103.8936,115.6338)"
         id="g148"><path
           inkscape:connector-curvature="0"
           id="path150"
           style="fill:#7c4927;fill-opacity:1;fill-rule:nonzero;stroke:none"
           d="m 0,0 c -12.815,-0.257 -20.891,-5.254 -23.838,-5.895 -2.948,-0.64 -30.118,0 -34.476,0 -4.357,0 -6.279,-0.897 -8.202,-2.563 -1.922,-1.667 -4.998,-1.025 -4.998,-1.025 -7.881,-0.256 -6.921,-4.55 -6.921,-4.55 6.92,-14.803 17.109,-5.383 39.025,-17.11 21.915,-11.726 23.068,-25.568 23.068,-25.568 H 1.665 c 0.129,21.084 -21.53,35.051 -21.53,35.051 19.48,-12.047 23.325,-26.656 23.325,-26.656 0.128,6.536 6.792,14.994 6.792,14.994 C 4.997,-43.959 6.343,-56.711 6.343,-56.711 H 23.645 C 45.561,-9.228 12.815,0.257 0,0" /></g><g
         transform="translate(31.1294,106.0693)"
         id="g156"><path
           inkscape:connector-curvature="0"
           id="path158"
           style="fill:#7c4927;fill-opacity:1;fill-rule:nonzero;stroke:none"
           d="M 0,0 C 0,0 -5.527,0.193 -6.007,-4.324 -6.488,-8.843 -0.072,-13.725 11.595,-14.672 23.261,-15.619 0,0 0,0" /></g><g
         id="g5034"><g
           id="g136"
           transform="translate(51.3628,90.6416)"><path
             d="m 0,0 c 0,0 13.697,-6.534 20.233,-31.719 h 11.92 c 0,0 -0.257,13.521 -9.869,22.748 C 12.672,0.257 0,0 0,0"
             style="fill:#6d3e1f;fill-opacity:1;fill-rule:nonzero;stroke:none"
             id="path138"
             inkscape:connector-curvature="0" /></g><g
           id="g140"
           transform="translate(83.4629,59.833)"><path
             d="m 0,0 c -0.253,3.182 -1.694,14.042 -9.816,21.838 -9.612,9.227 -22.284,8.971 -22.284,8.971 0,0 2.87,-1.376 6.607,-5.273 C -19.465,23.474 -6.657,17.206 0,0"
             style="fill:#5b3019;fill-opacity:1;fill-rule:nonzero;stroke:none"
             id="path142"
             inkscape:connector-curvature="0" /></g><g
           id="g144"
           transform="translate(114.1455,82.3115)"><path
             d="m 0,0 c 0,0 -6.664,-8.458 -6.792,-14.994 0,0 -3.845,14.609 -23.325,26.656 0,0 21.659,-13.967 21.53,-35.051 h 4.678 c 0,0 -1.346,12.752 3.909,23.389"
             style="fill:#5b3019;fill-opacity:1;fill-rule:nonzero;stroke:none"
             id="path146"
             inkscape:connector-curvature="0" /></g><g
           id="g152"
           transform="translate(31.1294,106.0693)"><path
             d="M 0,0 C 0,0 4.267,0.019 5.57,0.635 6.873,1.25 4.277,-4.614 0,0"
             style="fill:#7c4927;fill-opacity:1;fill-rule:nonzero;stroke:none"
             id="path154"
             inkscape:connector-curvature="0" /></g><g
           id="g160"
           transform="translate(41.9429,103.2344)"><path
             d="m 0,0 c 0,-0.796 -0.646,-1.441 -1.442,-1.441 -0.796,0 -1.441,0.645 -1.441,1.441 0,0.796 0.645,1.442 1.441,1.442 C -0.646,1.442 0,0.796 0,0"
             style="fill:#5b3019;fill-opacity:1;fill-rule:nonzero;stroke:none"
             id="path162"
             inkscape:connector-curvature="0" /></g><g
           id="g164"
           transform="translate(51.3628,109.3955)"><path
             d="m 0,0 c 0,-1.481 -1.201,-2.683 -2.682,-2.683 -1.482,0 -2.683,1.202 -2.683,2.683 0,1.481 1.201,2.682 2.683,2.682 C -1.201,2.682 0,1.481 0,0"
             style="fill:#7c4927;fill-opacity:1;fill-rule:nonzero;stroke:none"
             id="path166"
             inkscape:connector-curvature="0" /></g></g></g><g
       id="g5109"><g
         transform="translate(198.9121,292.7285)"
         id="g168"><path
           inkscape:connector-curvature="0"
           id="path170"
           style="fill:#6d3e1f;fill-opacity:1;fill-rule:nonzero;stroke:none"
           d="M 0,0 C 0,0 -1.788,2.533 -4.619,1.639 -7.449,0.745 -14.154,-6.407 -7.151,-8.344 -0.149,-10.281 0,0 0,0" /></g><g
         transform="translate(229.9023,300.6997)"
         id="g172"><path
           inkscape:connector-curvature="0"
           id="path174"
           style="fill:#7c4927;fill-opacity:1;fill-rule:nonzero;stroke:none"
           d="m 0,0 c 0,0 -15.197,5.811 -33.076,-8.045 -17.879,-13.857 -8.046,-40.676 -2.682,-47.603 5.363,-6.929 4.023,-14.974 3.129,-17.433 -0.894,-2.458 -0.447,-4.246 -0.447,-4.246 h 26.371 c 0,0 0.447,1.564 -2.383,4.246 -2.831,2.683 -4.917,7.6 -2.235,14.602 0,0 12.366,-2.085 21.902,0.894 0,0 0.298,-9.685 -0.745,-13.409 C 8.791,-74.72 8.94,-77.327 8.94,-77.327 h 27.117 c 0,0 -1.193,2.906 -4.172,5.439 -2.981,2.533 -3.129,4.171 -1.043,10.429 2.086,6.258 6.406,13.707 6.406,13.707 0,0 11.474,7.748 18.923,11.175 7.449,3.427 17.729,4.321 23.093,9.386 0,0 11.025,0.298 15.346,8.493 0,0 0.223,1.936 -4.023,1.936 0,0 -9.907,2.385 -10.802,3.204 -0.893,0.819 -3.65,6.779 -15.569,4.619 0,0 -3.427,2.681 -4.396,-0.82 0,0 -6.332,-1.117 -11.174,0.447 -4.842,1.564 -11.324,6.481 -19.742,3.948 C 20.487,-7.896 17.582,-6.556 12.367,-4.768 7.152,-2.98 0,0 0,0" /></g><g
         transform="translate(233.3291,285.7256)"
         id="g176"><path
           inkscape:connector-curvature="0"
           id="path178"
           style="fill:#6d3e1f;fill-opacity:1;fill-rule:nonzero;stroke:none"
           d="m 0,0 c 0,0 7.45,-12.05 0.894,-23.084 -6.555,-11.035 -14.519,-16.059 -15.644,-20.421 0,0 0.6,-0.101 1.634,-0.227 1.233,2.026 4.173,6.173 11.179,14.529 C 10.43,-14.452 3.129,-2.831 0,0" /></g><g
         transform="translate(239.2319,242.7603)"
         id="g180"><path
           inkscape:connector-curvature="0"
           id="path182"
           style="fill:#6d3e1f;fill-opacity:1;fill-rule:nonzero;stroke:none"
           d="m 0,0 c 0.42,0.11 0.838,0.226 1.249,0.354 -0.037,3.867 2.719,12.217 2.719,15.235 0,3.016 -4.135,3.127 -3.8,3.016 C 4.018,17.346 3.297,14.807 2.404,11.23 1.727,8.523 0.538,2.68 0,0" /></g><g
         transform="translate(273.2588,276.8984)"
         id="g184"><path
           inkscape:connector-curvature="0"
           id="path186"
           style="fill:#6d3e1f;fill-opacity:1;fill-rule:nonzero;stroke:none"
           d="m 0,0 c 0,0 -2.83,-17.714 -6.108,-23.951 0,0 0.806,0.545 2.122,1.404 C -2.808,-18.489 -1.128,-11.215 0,0" /></g><g
         transform="translate(289.1006,290.8477)"
         id="g188"><path
           inkscape:connector-curvature="0"
           id="path190"
           style="fill:#6d3e1f;fill-opacity:1;fill-rule:nonzero;stroke:none"
           d="M 0,0 C -0.307,-3.588 2.518,-5.604 2.857,-5.196 3.229,-4.749 2.41,-4.153 2.41,-4.153 -0.048,-1.993 0.622,0.093 0.622,0.093 0.622,0.093 0.397,0.054 0,0" /></g><g
         transform="translate(292.0547,290.5684)"
         id="g192"><path
           inkscape:connector-curvature="0"
           id="path194"
           style="fill:#6d3e1f;fill-opacity:1;fill-rule:nonzero;stroke:none"
           d="M 0,0 C 0,0 0.797,-1.639 1.914,-1.788 3.032,-1.937 -0.648,-3.129 0,0" /></g><g
         transform="translate(293.6719,283.5654)"
         id="g196"><path
           inkscape:connector-curvature="0"
           id="path198"
           style="fill:#6d3e1f;fill-opacity:1;fill-rule:nonzero;stroke:none"
           d="M 0,0 C 0,0 0.968,-3.278 2.83,-4.917 4.692,-6.556 0.381,-4.872 0,0" /></g><g
         transform="translate(307.3779,288.27)"
         id="g200"><path
           inkscape:connector-curvature="0"
           id="path202"
           style="fill:#5b3019;fill-opacity:1;fill-rule:nonzero;stroke:none"
           d="m 0,0 c 0,0 -1.862,0.286 -2.905,-2.991 0,0 -0.745,4.12 2.905,2.991" /></g><g
         transform="translate(307.3779,284.9917)"
         id="g204"><path
           inkscape:connector-curvature="0"
           id="path206"
           style="fill:#5b3019;fill-opacity:1;fill-rule:nonzero;stroke:none"
           d="m 0,0 c 0,-0.335 -0.233,-0.607 -0.521,-0.607 -0.288,0 -0.521,0.272 -0.521,0.607 0,0.336 0.233,0.608 0.521,0.608 C -0.233,0.608 0,0.336 0,0" /></g><g
         transform="translate(324.5127,282.0015)"
         id="g208"><path
           inkscape:connector-curvature="0"
           id="path210"
           style="fill:#6d3e1f;fill-opacity:1;fill-rule:nonzero;stroke:none"
           d="m 0,0 c 0,0 0.223,1.937 -4.023,1.937 0,0 -7.625,1.835 -10.1,2.838 -2.276,-1.591 -6.451,-5.824 -1.224,-13.268 0,0 11.026,0.299 15.347,8.493" /></g><g
         transform="translate(320.7822,283.9341)"
         id="g212"><path
           inkscape:connector-curvature="0"
           id="path214"
           style="fill:#5b3019;fill-opacity:1;fill-rule:nonzero;stroke:none"
           d="m 0,0 c -0.194,-0.965 -0.117,-2.643 1.273,-5.232 0.939,0.926 1.78,2.016 2.457,3.299 0,0 0.21,1.845 -3.73,1.933" /></g><g
         transform="translate(318.1807,278.04)"
         id="g216"><path
           inkscape:connector-curvature="0"
           id="path218"
           style="fill:#5b3019;fill-opacity:1;fill-rule:nonzero;stroke:none"
           d="M 0,0 C 0.969,-1.502 3.054,0.311 3.054,0.311 L 2.996,-0.13 c 0.151,0.127 0.302,0.257 0.45,0.391 L 3.874,2.103 C 2.831,-0.426 0,0 0,0" /></g></g><g
       id="g5020"><g
         transform="translate(259.0781,125.1885)"
         id="g220"><path
           inkscape:connector-curvature="0"
           id="path222"
           style="fill:#6d3e1f;fill-opacity:1;fill-rule:nonzero;stroke:none"
           d="M 0,0 C 0.937,0 12.783,6.895 19.146,20.154 25.512,33.413 32.76,21.895 27.281,12.185 21.801,2.476 5.182,-23.429 -3.484,-15.692 -12.145,-7.956 0,0 0,0" /></g><g
         transform="translate(274.8125,132.9668)"
         id="g224"><path
           inkscape:connector-curvature="0"
           id="path226"
           style="fill:#5b3019;fill-opacity:1;fill-rule:nonzero;stroke:none"
           d="M 0,0 C 0,0 2.033,2.918 2.297,3.89 2.551,4.821 2.475,6.561 0.604,7.405 -5.926,-2.6 -14.922,-7.778 -15.734,-7.778 c 0,0 -12.145,-7.956 -3.485,-15.693 2.039,-1.82 4.518,-1.777 7.186,-0.523 C -10.111,-19.908 -3.32,-5.582 0,0" /></g><g
         transform="translate(217.1265,65.6826)"
         id="g228"><path
           inkscape:connector-curvature="0"
           id="path230"
           style="fill:#6d3e1f;fill-opacity:1;fill-rule:nonzero;stroke:none"
           d="m 0,0 c 0,0 5.585,-12.891 4.348,-19.167 -1.238,-6.276 -2.825,-9.371 0.179,-9.371 3.003,0 11.047,-0.618 10.782,0.619 -0.266,1.238 -2.21,3.005 -4.95,3.094 0,0 4.521,3.271 4.956,9.636 C 15.751,-8.826 5.199,3.785 0,0" /></g><g
         transform="translate(240.5684,126.6025)"
         id="g232"><path
           inkscape:connector-curvature="0"
           id="path234"
           style="fill:#7c4927;fill-opacity:1;fill-rule:nonzero;stroke:none"
           d="M 0,0 C 0,0 1.237,-5.303 0,-7.603 -1.238,-9.9 -17.327,-25.812 -19.801,-28.64 c -2.475,-2.829 -12.73,-22.454 -4.066,-31.824 8.662,-9.369 16.617,-15.381 16.795,-29.523 H 5.48 c 0,0 0.177,2.829 -3.536,2.473 0,0 15.38,53.038 18.21,68.773 0,0 8.662,18.565 12.553,25.105 0,0 2.031,2.918 2.299,3.89 0.264,0.973 0.176,2.829 -1.945,3.624 -2.124,0.796 -5.04,-2.122 -5.04,-2.122 0,0 -4.685,4.686 -14.583,3.536 C 3.536,14.145 1.149,5.746 1.237,4.066 c 0,0 -0.972,2.565 -4.066,0.972 C -5.923,3.448 -3.094,-2.563 0,0" /></g><g
         transform="translate(250.8271,101.1445)"
         id="g236"><path
           inkscape:connector-curvature="0"
           id="path238"
           style="fill:#6d3e1f;fill-opacity:1;fill-rule:nonzero;stroke:none"
           d="m 0,0 c 1.57,-2.382 5.265,-4.162 7.28,-4.998 0.346,1.408 0.67,2.756 0.971,4.028 z" /></g><g
         transform="translate(251.0874,126.249)"
         id="g240"><path
           inkscape:connector-curvature="0"
           id="path242"
           style="fill:#6d3e1f;fill-opacity:1;fill-rule:nonzero;stroke:none"
           d="m 0,0 c 0,0 -2.387,0.176 -1.856,-2.122 0.53,-2.298 3.182,-2.916 4.243,-2.387 0,0 -1.858,-1.414 -3.802,-0.883 C -3.359,-4.862 -3.89,1.237 0,0" /></g><g
         transform="translate(214.8447,79.3105)"
         id="g244"><path
           inkscape:connector-curvature="0"
           id="path246"
           style="fill:#7c4927;fill-opacity:1;fill-rule:nonzero;stroke:none"
           d="M 0,0 C 0,0 -2.563,1.944 -5.127,-0.442 -7.691,-2.829 -5.304,-11.05 0.972,-7.071 7.248,-3.094 0,0 0,0" /></g><g
         transform="translate(250.8271,101.1445)"
         id="g248"><path
           inkscape:connector-curvature="0"
           id="path250"
           style="fill:#7c4927;fill-opacity:1;fill-rule:nonzero;stroke:none"
           d="m 0,0 c 0,0 10.552,-6.984 24.853,-2.741 14.302,4.244 19.341,18.034 19.605,26.121 0.266,8.089 -3.844,9.945 -6.496,9.414 C 35.31,32.265 33.056,29.349 32.394,24.573 31.729,19.8 26.823,4.154 15.95,5.215 5.079,6.276 6.007,10.519 6.007,10.519 Z" /></g><g
         transform="translate(275.5742,136.8564)"
         id="g252"><path
           inkscape:connector-curvature="0"
           id="path254"
           style="fill:#6d3e1f;fill-opacity:1;fill-rule:nonzero;stroke:none"
           d="M 0,0 C 0.264,0.973 0.176,2.829 -1.945,3.624 -4.068,4.42 -6.984,1.502 -6.984,1.502 c 0,0 -0.116,0.115 -0.346,0.304 0,0 3.025,-2.684 5.125,-5.559 C -1.805,-3.169 -0.23,-0.848 0,0" /></g><g
         transform="translate(275.4395,138.8652)"
         id="g256"><path
           inkscape:connector-curvature="0"
           id="path258"
           style="fill:#5b3019;fill-opacity:1;fill-rule:nonzero;stroke:none"
           d="M 0,0 C -0.273,0.638 -0.818,1.244 -1.811,1.615 -2.414,1.842 -3.084,1.763 -3.73,1.54 -3.736,1.324 -3.668,1.092 -3.477,0.843 -2.75,-0.109 -1.176,-0.296 0,0" /></g><g
         transform="translate(268.2441,136.1963)"
         id="g260"><path
           inkscape:connector-curvature="0"
           id="path262"
           style="fill:#5b3019;fill-opacity:1;fill-rule:nonzero;stroke:none"
           d="m 0,0 c 0,-0.368 -0.729,-0.665 -1.629,-0.665 -0.898,0 -1.627,0.297 -1.627,0.665 0,0.367 0.729,0.664 1.627,0.664 C -0.729,0.664 0,0.367 0,0" /></g><g
         transform="translate(267.8789,136.1182)"
         id="g264"><path
           inkscape:connector-curvature="0"
           id="path266"
           style="fill:#6d3e1f;fill-opacity:1;fill-rule:nonzero;stroke:none"
           d="m 0,0 c 0,-0.188 -0.283,-0.342 -0.631,-0.342 -0.348,0 -0.633,0.154 -0.633,0.342 0,0.188 0.285,0.341 0.633,0.341 C -0.283,0.341 0,0.188 0,0" /></g><g
         transform="translate(267.3203,137.834)"
         id="g268"><path
           inkscape:connector-curvature="0"
           id="path270"
           style="fill:#5b3019;fill-opacity:1;fill-rule:nonzero;stroke:none"
           d="m 0,0 c 0,-0.254 -0.506,-0.461 -1.131,-0.461 -0.623,0 -1.129,0.207 -1.129,0.461 0,0.256 0.506,0.462 1.129,0.462 C -0.506,0.462 0,0.256 0,0" /></g><g
         transform="translate(267.0684,137.7793)"
         id="g272"><path
           inkscape:connector-curvature="0"
           id="path274"
           style="fill:#6d3e1f;fill-opacity:1;fill-rule:nonzero;stroke:none"
           d="m 0,0 c 0,-0.129 -0.197,-0.235 -0.439,-0.235 -0.243,0 -0.44,0.106 -0.44,0.235 0,0.132 0.197,0.238 0.44,0.238 C -0.197,0.238 0,0.132 0,0" /></g></g><g
       id="g5081"><g
         transform="translate(32.5303,231.2119)"
         id="g276"><path
           inkscape:connector-curvature="0"
           id="path278"
           style="fill:#7c4927;fill-opacity:1;fill-rule:nonzero;stroke:none"
           d="m 0,0 c 0,0 -1.251,-2.056 0.895,-1.519 2.145,0.536 5.901,2.771 7.152,4.648 1.251,1.878 3.13,3.399 5.007,3.756 1.878,0.358 7.779,2.593 10.55,6.259 2.772,3.666 3.398,4.113 3.398,4.113 0,0 3.845,1.967 19.134,1.967 15.289,0 33.618,-7.958 23.872,-16.988 0,0 -0.984,-0.716 0.716,-1.52 1.698,-0.805 10.55,3.04 11.444,8.673 0.894,5.632 -0.357,9.835 -6.617,14.663 -6.258,4.827 -4.112,8.762 -2.502,9.477 1.609,0.716 2.592,0.894 6.437,-0.447 3.845,-1.341 12.517,-3.218 16.988,-0.268 0,0 13.679,-1.341 13.59,4.828 0,0 -0.179,2.414 -3.04,3.129 -2.861,0.716 -8.673,2.414 -9.388,3.577 -0.715,1.162 0.447,3.666 -8.762,6.348 0,0 -0.805,0.984 -0.895,3.665 -0.089,2.683 -1.877,2.951 -2.592,1.968 -0.716,-0.984 0.178,-4.56 0.893,-5.186 l -3.039,1.162 c 0,0 0.447,2.414 -1.162,2.683 -1.61,0.267 -2.236,-2.504 -2.236,-2.504 0,0 -26.108,8.851 -43.989,5.186 C 17.972,54.004 2.861,42.113 0.537,32.635 c 0,0 -0.268,-0.983 0.983,-0.805 1.252,0.179 1.52,1.252 2.683,0.895 C 5.365,32.367 3.756,31.473 3.398,29.953 3.04,28.433 1.609,21.101 3.487,16.541 5.365,11.981 3.845,9.478 3.219,8.405 2.593,7.332 0.894,5.543 0.805,3.398 0.716,1.252 0,0 0,0" /></g><g
         transform="translate(83.7622,234.0737)"
         id="g280"><path
           inkscape:connector-curvature="0"
           id="path282"
           style="fill:#6d3e1f;fill-opacity:1;fill-rule:nonzero;stroke:none"
           d="m 0,0 c -2.235,0.983 -1.43,4.649 -2.771,7.421 -0.883,1.824 -3.468,6.162 -5.133,8.917 -12.959,-0.221 -16.326,-1.943 -16.326,-1.943 0,0 -0.364,-0.262 -1.764,-2.008 2.991,-0.902 9.877,-3.418 13.656,-8.364 4.917,-6.437 5.632,-6.08 13.321,-5.633 0,0 1.253,0.627 -0.983,1.61" /></g><g
         transform="translate(75.8579,250.4121)"
         id="g284"><path
           inkscape:connector-curvature="0"
           id="path286"
           style="fill:#5b3019;fill-opacity:1;fill-rule:nonzero;stroke:none"
           d="m 0,0 c -12.959,-0.222 -16.326,-1.943 -16.326,-1.943 0,0 -0.364,-0.262 -1.764,-2.008 0.197,-0.06 0.411,-0.127 0.64,-0.2 0.876,1.047 1.124,1.224 1.124,1.224 0,0 3.469,1.774 16.913,1.953 C 0.383,-0.635 0.186,-0.307 0,0" /></g><g
         transform="translate(91.7197,234.5205)"
         id="g288"><path
           inkscape:connector-curvature="0"
           id="path290"
           style="fill:#6d3e1f;fill-opacity:1;fill-rule:nonzero;stroke:none"
           d="m 0,0 c -1.341,0.805 -3.487,0.894 -1.341,2.861 1.809,1.659 5.018,5.862 6.14,9.658 -2.803,1.162 -6.064,2.072 -9.451,2.656 C -5.14,12.478 -6.134,7.517 -7.152,5.543 -8.583,2.771 -10.014,-0.804 -4.828,-1.341 0.357,-1.877 1.341,-0.804 0,0" /></g><g
         transform="translate(86.9434,249.0171)"
         id="g292"><path
           inkscape:connector-curvature="0"
           id="path294"
           style="fill:#5b3019;fill-opacity:1;fill-rule:nonzero;stroke:none"
           d="m 0,0 c 1.943,-0.505 6.2,-1.726 9.073,-3.392 0.194,0.474 0.365,0.948 0.503,1.414 C 6.772,-0.816 3.511,0.094 0.125,0.679 0.086,0.466 0.044,0.238 0,0" /></g><g
         transform="translate(62.4829,257.499)"
         id="g296"><path
           inkscape:connector-curvature="0"
           id="path298"
           style="fill:#5b3019;fill-opacity:1;fill-rule:nonzero;stroke:none"
           d="m 0,0 c 0,0 0.447,-4.917 -2.951,-9.03 l 1.159,0.401 c 0,0 2.061,1.297 1.792,8.629" /></g><g
         transform="translate(139.5542,271.9829)"
         id="g300"><path
           inkscape:connector-curvature="0"
           id="path302"
           style="fill:#6d3e1f;fill-opacity:1;fill-rule:nonzero;stroke:none"
           d="m 0,0 c -2.602,0.651 -7.642,2.115 -9.073,3.249 -1.475,-1.738 -3.618,-5.49 -1.728,-11.359 0.084,0.051 0.17,0.099 0.251,0.153 0,0 13.679,-1.341 13.59,4.828 0,0 -0.179,2.414 -3.04,3.129" /></g><g
         transform="translate(141.9238,271.2681)"
         id="g304"><path
           inkscape:connector-curvature="0"
           id="path306"
           style="fill:#5b3019;fill-opacity:1;fill-rule:nonzero;stroke:none"
           d="M 0,0 C 0,0 -1.118,0.268 -0.984,-1.118 -0.85,-2.503 0.849,-3.04 0.894,-1.923 0.938,-0.805 0.346,-0.012 0,0" /></g><g
         transform="translate(129.7202,266.2246)"
         id="g308"><path
           inkscape:connector-curvature="0"
           id="path310"
           style="fill:#5b3019;fill-opacity:1;fill-rule:nonzero;stroke:none"
           d="M 0,0 C -0.377,1.043 0.094,1.908 0.099,1.917 0.171,2.045 0.126,2.209 -0.003,2.281 -0.132,2.354 -0.295,2.309 -0.368,2.18 -0.393,2.137 -0.964,1.106 -0.509,-0.171 -0.217,-0.988 0.418,-1.704 1.386,-2.311 1.737,-2.319 2.12,-2.324 2.528,-2.321 1.178,-1.687 0.328,-0.909 0,0" /></g><g
         transform="translate(125.1592,274.8447)"
         id="g312"><path
           inkscape:connector-curvature="0"
           id="path314"
           style="fill:#5b3019;fill-opacity:1;fill-rule:nonzero;stroke:none"
           d="m 0,0 c 0,-0.618 -0.5,-1.118 -1.117,-1.118 -0.618,0 -1.118,0.5 -1.118,1.118 0,0.617 0.5,1.117 1.118,1.117 C -0.5,1.117 0,0.617 0,0" /></g><g
         transform="translate(124.8057,274.7358)"
         id="g316"><path
           inkscape:connector-curvature="0"
           id="path318"
           style="fill:#7c4927;fill-opacity:1;fill-rule:nonzero;stroke:none"
           d="m 0,0 c 0,-0.274 -0.222,-0.496 -0.496,-0.496 -0.274,0 -0.496,0.222 -0.496,0.496 0,0.273 0.222,0.496 0.496,0.496 C -0.222,0.496 0,0.273 0,0" /></g><g
         transform="translate(114.2515,279.002)"
         id="g320"><path
           inkscape:connector-curvature="0"
           id="path322"
           style="fill:#6d3e1f;fill-opacity:1;fill-rule:nonzero;stroke:none"
           d="m 0,0 c 0,0 -1.789,4.65 0.357,7.198 0,0 -1.788,0.536 -2.547,-2.683 0,0 -0.224,-1.654 0,-2.727 C -1.967,0.716 -1.297,0.268 0,0" /></g><g
         transform="translate(115.7949,283.6831)"
         id="g324"><path
           inkscape:connector-curvature="0"
           id="path326"
           style="fill:#6d3e1f;fill-opacity:1;fill-rule:nonzero;stroke:none"
           d="M 0,0 C 0,0 -0.292,-3.206 0.423,-4.234 1.139,-5.262 -1.228,-4.305 0,0" /></g></g></g></svg>